<mxfile host="app.diagrams.net" modified="2023-09-19T10:09:11.381Z" agent="Mozilla/5.0 (X11; Linux x86_64; rv:109.0) Gecko/20100101 Firefox/117.0" etag="JZ1q2mGAN39j9VLn6TtP" version="21.7.5" type="google" pages="3">
  <diagram id="C5RBs43oDa-KdzZeNtuy" name="recipe_flow">
    <mxGraphModel grid="1" page="1" gridSize="10" guides="1" tooltips="1" connect="1" arrows="1" fold="1" pageScale="1" pageWidth="827" pageHeight="1169" math="0" shadow="0">
      <root>
        <mxCell id="WIyWlLk6GJQsqaUBKTNV-0" />
        <mxCell id="WIyWlLk6GJQsqaUBKTNV-1" parent="WIyWlLk6GJQsqaUBKTNV-0" />
        <mxCell id="WIyWlLk6GJQsqaUBKTNV-2" value="" style="html=1;jettySize=auto;orthogonalLoop=1;fontSize=11;endArrow=block;endFill=0;strokeWidth=1;shadow=0;labelBackgroundColor=none;edgeStyle=orthogonalEdgeStyle;exitX=0.5;exitY=1;exitDx=0;exitDy=0;exitPerimeter=0;rounded=0;jumpStyle=none;jumpSize=6;" edge="1" parent="WIyWlLk6GJQsqaUBKTNV-1" source="5" target="WIyWlLk6GJQsqaUBKTNV-6">
          <mxGeometry relative="1" as="geometry">
            <mxPoint x="220" y="120" as="sourcePoint" />
          </mxGeometry>
        </mxCell>
        <mxCell id="WIyWlLk6GJQsqaUBKTNV-4" value="Yes" style="html=1;jettySize=auto;orthogonalLoop=1;fontSize=11;endArrow=block;endFill=0;strokeWidth=1;shadow=0;labelBackgroundColor=none;edgeStyle=orthogonalEdgeStyle;entryX=0.5;entryY=0;entryDx=0;entryDy=0;rounded=0;jumpStyle=none;jumpSize=6;" edge="1" parent="WIyWlLk6GJQsqaUBKTNV-1" source="WIyWlLk6GJQsqaUBKTNV-6" target="2">
          <mxGeometry y="20" relative="1" as="geometry">
            <mxPoint as="offset" />
            <mxPoint x="220" y="290" as="targetPoint" />
          </mxGeometry>
        </mxCell>
        <mxCell id="WIyWlLk6GJQsqaUBKTNV-5" value="No" style="edgeStyle=orthogonalEdgeStyle;rounded=0;html=1;jettySize=auto;orthogonalLoop=1;fontSize=11;endArrow=block;endFill=0;endSize=8;strokeWidth=1;shadow=0;labelBackgroundColor=none;entryX=-0.011;entryY=0.497;entryDx=0;entryDy=0;entryPerimeter=0;" edge="1" parent="WIyWlLk6GJQsqaUBKTNV-1" source="WIyWlLk6GJQsqaUBKTNV-6" target="6">
          <mxGeometry y="10" relative="1" as="geometry">
            <mxPoint as="offset" />
            <mxPoint x="320" y="210" as="targetPoint" />
          </mxGeometry>
        </mxCell>
        <mxCell id="WIyWlLk6GJQsqaUBKTNV-6" value="has recipe&lt;br&gt;to do" style="rhombus;whiteSpace=wrap;html=1;shadow=0;fontFamily=Helvetica;fontSize=12;align=center;strokeWidth=2;spacing=6;spacingTop=-4;fillColor=#f0a30a;fontColor=#000000;strokeColor=#BD7000;rounded=0;" vertex="1" parent="WIyWlLk6GJQsqaUBKTNV-1">
          <mxGeometry x="170" y="170" width="100" height="80" as="geometry" />
        </mxCell>
        <mxCell id="1" style="edgeStyle=orthogonalEdgeStyle;orthogonalLoop=1;jettySize=auto;html=1;entryX=1;entryY=0.5;entryDx=0;entryDy=0;entryPerimeter=0;labelBackgroundColor=none;endArrow=block;endFill=0;strokeWidth=1;shadow=0;exitX=0.399;exitY=-0.054;exitDx=0;exitDy=0;exitPerimeter=0;rounded=0;jumpStyle=none;jumpSize=6;" edge="1" parent="WIyWlLk6GJQsqaUBKTNV-1" source="6" target="5">
          <mxGeometry relative="1" as="geometry">
            <mxPoint x="420" y="140" as="sourcePoint" />
            <mxPoint x="220" y="140" as="targetPoint" />
            <Array as="points">
              <mxPoint x="360" y="90" />
            </Array>
          </mxGeometry>
        </mxCell>
        <mxCell id="WIyWlLk6GJQsqaUBKTNV-8" value="Yes" style="html=1;jettySize=auto;orthogonalLoop=1;fontSize=11;endArrow=block;endFill=0;strokeWidth=1;shadow=0;labelBackgroundColor=none;edgeStyle=orthogonalEdgeStyle;entryX=0.5;entryY=0;entryDx=0;entryDy=0;entryPerimeter=0;rounded=0;jumpStyle=none;jumpSize=6;startArrow=none;exitX=0.5;exitY=1;exitDx=0;exitDy=0;" edge="1" parent="WIyWlLk6GJQsqaUBKTNV-1" source="2" target="ZDK2ZaSmiAbwX3sLJAYU-26">
          <mxGeometry x="-0.6" y="20" relative="1" as="geometry">
            <mxPoint as="offset" />
            <mxPoint x="220" y="380" as="sourcePoint" />
            <mxPoint x="220" y="470" as="targetPoint" />
          </mxGeometry>
        </mxCell>
        <mxCell id="WIyWlLk6GJQsqaUBKTNV-9" value="No" style="edgeStyle=orthogonalEdgeStyle;html=1;jettySize=auto;orthogonalLoop=1;fontSize=11;endArrow=block;endFill=0;strokeWidth=1;shadow=0;labelBackgroundColor=none;exitX=1;exitY=0.5;exitDx=0;exitDy=0;entryX=0;entryY=0.5;entryDx=0;entryDy=0;rounded=0;jumpStyle=none;jumpSize=6;" edge="1" parent="WIyWlLk6GJQsqaUBKTNV-1" source="2" target="7">
          <mxGeometry y="20" relative="1" as="geometry">
            <mxPoint as="offset" />
            <mxPoint x="270" y="330" as="sourcePoint" />
            <mxPoint x="320" y="330" as="targetPoint" />
          </mxGeometry>
        </mxCell>
        <mxCell id="18" style="edgeStyle=orthogonalEdgeStyle;orthogonalLoop=1;jettySize=auto;html=1;shadow=0;labelBackgroundColor=none;strokeColor=default;strokeWidth=1;fontFamily=Helvetica;fontSize=11;fontColor=default;endArrow=block;endFill=0;rounded=0;jumpStyle=none;jumpSize=6;entryX=1;entryY=0.5;entryDx=0;entryDy=0;entryPerimeter=0;" edge="1" parent="WIyWlLk6GJQsqaUBKTNV-1" source="WIyWlLk6GJQsqaUBKTNV-12" target="ZDK2ZaSmiAbwX3sLJAYU-26">
          <mxGeometry relative="1" as="geometry">
            <mxPoint x="220" y="430" as="targetPoint" />
          </mxGeometry>
        </mxCell>
        <mxCell id="WIyWlLk6GJQsqaUBKTNV-12" value="PickUp plate where available" style="rounded=0;whiteSpace=wrap;html=1;fontSize=12;glass=0;strokeWidth=2;shadow=0;fillColor=#1ba1e2;fontColor=#ffffff;strokeColor=#006EAF;" vertex="1" parent="WIyWlLk6GJQsqaUBKTNV-1">
          <mxGeometry x="320" y="410" width="120" height="40" as="geometry" />
        </mxCell>
        <mxCell id="2" value="Has Plate &lt;br&gt;for recipe" style="rhombus;whiteSpace=wrap;html=1;shadow=0;fontFamily=Helvetica;fontSize=12;align=center;strokeWidth=2;spacing=6;spacingTop=-4;fillColor=#f0a30a;fontColor=#000000;strokeColor=#BD7000;rounded=0;" vertex="1" parent="WIyWlLk6GJQsqaUBKTNV-1">
          <mxGeometry x="170" y="290" width="100" height="80" as="geometry" />
        </mxCell>
        <mxCell id="5" value="Start" style="strokeWidth=2;html=1;shape=mxgraph.flowchart.start_1;whiteSpace=wrap;shadow=0;spacing=6;spacingTop=-4;fillColor=#d80073;fontColor=#ffffff;strokeColor=#A50040;rounded=0;" vertex="1" parent="WIyWlLk6GJQsqaUBKTNV-1">
          <mxGeometry x="170" y="60" width="100" height="60" as="geometry" />
        </mxCell>
        <mxCell id="6" value="Wait for new Recipe" style="strokeWidth=2;html=1;shape=mxgraph.flowchart.delay;whiteSpace=wrap;shadow=0;spacing=6;spacingTop=-4;fillColor=#60a917;fontColor=#ffffff;strokeColor=#2D7600;rounded=0;" vertex="1" parent="WIyWlLk6GJQsqaUBKTNV-1">
          <mxGeometry x="320" y="190" width="100" height="40" as="geometry" />
        </mxCell>
        <mxCell id="7" value="Any plate available" style="rhombus;whiteSpace=wrap;html=1;shadow=0;fontFamily=Helvetica;fontSize=12;align=center;strokeWidth=2;spacing=6;spacingTop=-4;fillColor=#f0a30a;fontColor=#000000;strokeColor=#BD7000;rounded=0;" vertex="1" parent="WIyWlLk6GJQsqaUBKTNV-1">
          <mxGeometry x="330" y="290" width="100" height="80" as="geometry" />
        </mxCell>
        <mxCell id="11" value="No" style="edgeStyle=orthogonalEdgeStyle;html=1;jettySize=auto;orthogonalLoop=1;fontSize=11;endArrow=block;endFill=0;strokeWidth=1;shadow=0;labelBackgroundColor=none;exitX=1;exitY=0.5;exitDx=0;exitDy=0;rounded=0;jumpStyle=none;jumpSize=6;" edge="1" parent="WIyWlLk6GJQsqaUBKTNV-1" source="7">
          <mxGeometry x="-0.0083" y="-20" relative="1" as="geometry">
            <mxPoint x="20" y="-20" as="offset" />
            <mxPoint x="279.9642857142858" y="220.02857142857135" as="sourcePoint" />
            <mxPoint x="490" y="330" as="targetPoint" />
          </mxGeometry>
        </mxCell>
        <mxCell id="13" value="Wait for Plate" style="strokeWidth=2;html=1;shape=mxgraph.flowchart.delay;whiteSpace=wrap;shadow=0;spacing=6;spacingTop=-4;fillColor=#60a917;fontColor=#ffffff;strokeColor=#2D7600;rounded=0;" vertex="1" parent="WIyWlLk6GJQsqaUBKTNV-1">
          <mxGeometry x="490" y="310" width="100" height="40" as="geometry" />
        </mxCell>
        <mxCell id="15" value="Yes" style="html=1;jettySize=auto;orthogonalLoop=1;fontSize=11;endArrow=block;endFill=0;strokeWidth=1;shadow=0;labelBackgroundColor=none;edgeStyle=orthogonalEdgeStyle;entryX=0.5;entryY=0;entryDx=0;entryDy=0;exitX=0.5;exitY=1;exitDx=0;exitDy=0;rounded=0;jumpStyle=none;jumpSize=6;" edge="1" parent="WIyWlLk6GJQsqaUBKTNV-1" source="7" target="WIyWlLk6GJQsqaUBKTNV-12">
          <mxGeometry y="20" relative="1" as="geometry">
            <mxPoint as="offset" />
            <mxPoint x="230" y="260" as="sourcePoint" />
            <mxPoint x="230" y="300" as="targetPoint" />
          </mxGeometry>
        </mxCell>
        <mxCell id="16" value="" style="html=1;jettySize=auto;orthogonalLoop=1;fontSize=11;endArrow=block;endFill=0;strokeWidth=1;shadow=0;labelBackgroundColor=none;edgeStyle=orthogonalEdgeStyle;entryX=1;entryY=0.5;entryDx=0;entryDy=0;exitX=0.5;exitY=1;exitDx=0;exitDy=0;rounded=0;jumpStyle=none;jumpSize=6;" edge="1" parent="WIyWlLk6GJQsqaUBKTNV-1" target="WIyWlLk6GJQsqaUBKTNV-12">
          <mxGeometry y="20" relative="1" as="geometry">
            <mxPoint as="offset" />
            <mxPoint x="539.71" y="350" as="sourcePoint" />
            <mxPoint x="539.71" y="410" as="targetPoint" />
            <Array as="points">
              <mxPoint x="540" y="430" />
            </Array>
          </mxGeometry>
        </mxCell>
        <mxCell id="24" style="edgeStyle=orthogonalEdgeStyle;orthogonalLoop=1;jettySize=auto;html=1;shadow=0;labelBackgroundColor=none;strokeColor=default;strokeWidth=1;fontFamily=Helvetica;fontSize=11;fontColor=default;endArrow=block;endFill=0;entryX=0;entryY=0.5;entryDx=0;entryDy=0;exitX=1;exitY=0.5;exitDx=0;exitDy=0;exitPerimeter=0;rounded=0;jumpStyle=none;jumpSize=6;" edge="1" parent="WIyWlLk6GJQsqaUBKTNV-1" source="20" target="EdnQOHQlmu5iI9FzblsW-26">
          <mxGeometry relative="1" as="geometry">
            <mxPoint x="220" y="630" as="targetPoint" />
          </mxGeometry>
        </mxCell>
        <mxCell id="20" value="&lt;span style=&quot;color: rgb(255, 255, 255); font-family: Helvetica; font-size: 12px; font-style: normal; font-variant-ligatures: normal; font-variant-caps: normal; font-weight: 400; letter-spacing: normal; orphans: 2; text-align: center; text-indent: 0px; text-transform: none; widows: 2; word-spacing: 0px; -webkit-text-stroke-width: 0px; text-decoration-thickness: initial; text-decoration-style: initial; text-decoration-color: initial; float: none; display: inline !important;&quot;&gt;Prepare Recipe Ingredients&lt;/span&gt;" style="strokeWidth=2;html=1;shape=mxgraph.flowchart.document2;whiteSpace=wrap;size=0.1870129870129879;fontFamily=Helvetica;fontSize=11;fillColor=#0050ef;strokeColor=#001DBC;fontColor=#ffffff;rounded=0;" vertex="1" parent="WIyWlLk6GJQsqaUBKTNV-1">
          <mxGeometry x="320" y="485" width="100" height="70" as="geometry" />
        </mxCell>
        <mxCell id="26" value="End" style="strokeWidth=2;html=1;shape=mxgraph.flowchart.terminator;whiteSpace=wrap;labelBackgroundColor=none;fontFamily=Helvetica;fontSize=11;fontColor=#ffffff;fillColor=#d80073;strokeColor=#A50040;rounded=0;" vertex="1" parent="WIyWlLk6GJQsqaUBKTNV-1">
          <mxGeometry x="470" y="690" width="120" height="60" as="geometry" />
        </mxCell>
        <mxCell id="ZDK2ZaSmiAbwX3sLJAYU-28" style="edgeStyle=orthogonalEdgeStyle;orthogonalLoop=1;jettySize=auto;html=1;entryX=0.5;entryY=0;entryDx=0;entryDy=0;labelBackgroundColor=none;endArrow=block;rounded=0;shadow=0;strokeWidth=1;endFill=0;" edge="1" parent="WIyWlLk6GJQsqaUBKTNV-1" source="ZDK2ZaSmiAbwX3sLJAYU-26" target="zxCdI5-D4cLqy-IDKFgt-26">
          <mxGeometry relative="1" as="geometry" />
        </mxCell>
        <mxCell id="ZDK2ZaSmiAbwX3sLJAYU-26" value="" style="verticalLabelPosition=bottom;verticalAlign=top;html=1;shape=mxgraph.flowchart.summing_function;" vertex="1" parent="WIyWlLk6GJQsqaUBKTNV-1">
          <mxGeometry x="197.5" y="407.5" width="45" height="45" as="geometry" />
        </mxCell>
        <mxCell id="oWLcWycp1kyX7rBGYOHc-27" style="edgeStyle=orthogonalEdgeStyle;shape=connector;rounded=0;jumpStyle=none;jumpSize=6;orthogonalLoop=1;jettySize=auto;html=1;entryX=0.5;entryY=0;entryDx=0;entryDy=0;entryPerimeter=0;shadow=0;labelBackgroundColor=none;strokeColor=default;strokeWidth=1;fontFamily=Helvetica;fontSize=12;fontColor=default;endArrow=block;endFill=0;" edge="1" parent="WIyWlLk6GJQsqaUBKTNV-1" source="oWLcWycp1kyX7rBGYOHc-26" target="26">
          <mxGeometry relative="1" as="geometry" />
        </mxCell>
        <mxCell id="oWLcWycp1kyX7rBGYOHc-26" value="&lt;span style=&quot;font-size: 11px;&quot;&gt;Deliver Completed Recipe&lt;/span&gt;" style="rounded=0;whiteSpace=wrap;html=1;fontSize=12;glass=0;strokeWidth=2;shadow=0;fillColor=#1ba1e2;fontColor=#ffffff;strokeColor=#006EAF;" vertex="1" parent="WIyWlLk6GJQsqaUBKTNV-1">
          <mxGeometry x="470" y="600" width="120" height="40" as="geometry" />
        </mxCell>
        <mxCell id="oWLcWycp1kyX7rBGYOHc-31" value="&lt;h1&gt;Recipe flow&lt;/h1&gt;" style="text;html=1;strokeColor=none;fillColor=none;spacing=5;spacingTop=-20;whiteSpace=wrap;overflow=hidden;rounded=0;fontFamily=Helvetica;fontSize=12;fontColor=default;" vertex="1" parent="WIyWlLk6GJQsqaUBKTNV-1">
          <mxGeometry x="450" y="60" width="190" height="120" as="geometry" />
        </mxCell>
        <mxCell id="zxCdI5-D4cLqy-IDKFgt-27" style="edgeStyle=orthogonalEdgeStyle;rounded=0;orthogonalLoop=1;jettySize=auto;html=1;entryX=0;entryY=0.5;entryDx=0;entryDy=0;entryPerimeter=0;" edge="1" parent="WIyWlLk6GJQsqaUBKTNV-1" source="zxCdI5-D4cLqy-IDKFgt-26" target="20">
          <mxGeometry relative="1" as="geometry" />
        </mxCell>
        <mxCell id="zxCdI5-D4cLqy-IDKFgt-26" value="Place plate on a clear counter" style="rounded=0;whiteSpace=wrap;html=1;absoluteArcSize=1;arcSize=14;strokeWidth=2;fontFamily=Helvetica;fontSize=12;fontColor=#ffffff;fillColor=#1ba1e2;strokeColor=#006EAF;" vertex="1" parent="WIyWlLk6GJQsqaUBKTNV-1">
          <mxGeometry x="170" y="490" width="100" height="60" as="geometry" />
        </mxCell>
        <mxCell id="EdnQOHQlmu5iI9FzblsW-27" style="edgeStyle=orthogonalEdgeStyle;rounded=0;orthogonalLoop=1;jettySize=auto;html=1;exitX=0.5;exitY=1;exitDx=0;exitDy=0;entryX=0.5;entryY=0;entryDx=0;entryDy=0;" edge="1" parent="WIyWlLk6GJQsqaUBKTNV-1" source="EdnQOHQlmu5iI9FzblsW-26" target="oWLcWycp1kyX7rBGYOHc-26">
          <mxGeometry relative="1" as="geometry" />
        </mxCell>
        <mxCell id="EdnQOHQlmu5iI9FzblsW-26" value="Pick up plate&lt;br&gt;with complete recipe" style="rounded=0;whiteSpace=wrap;html=1;absoluteArcSize=1;arcSize=14;strokeWidth=2;fontFamily=Helvetica;fontSize=12;fontColor=#ffffff;fillColor=#1ba1e2;strokeColor=#006EAF;" vertex="1" parent="WIyWlLk6GJQsqaUBKTNV-1">
          <mxGeometry x="480" y="490" width="100" height="60" as="geometry" />
        </mxCell>
      </root>
    </mxGraphModel>
  </diagram>
  <diagram id="vrp4lsvUr8qLl3UksQ4C" name="prepare_recipe_ingredients">
    <mxGraphModel grid="1" page="1" gridSize="10" guides="1" tooltips="1" connect="1" arrows="1" fold="1" pageScale="1" pageWidth="850" pageHeight="1100" math="0" shadow="0">
      <root>
        <mxCell id="0" />
        <mxCell id="1" parent="0" />
        <mxCell id="BLAmx-ZhUNznUgMC7xiz-1" value="&lt;font style=&quot;font-size: 12px;&quot;&gt;Start&lt;/font&gt;" style="strokeWidth=2;html=1;shape=mxgraph.flowchart.start_1;whiteSpace=wrap;fontFamily=Helvetica;fontSize=11;fontColor=#ffffff;fillColor=#d80073;strokeColor=#A50040;" vertex="1" parent="1">
          <mxGeometry x="230" y="50" width="100" height="70" as="geometry" />
        </mxCell>
        <mxCell id="BLAmx-ZhUNznUgMC7xiz-2" style="edgeStyle=orthogonalEdgeStyle;shape=connector;rounded=0;jumpStyle=none;jumpSize=6;orthogonalLoop=1;jettySize=auto;html=1;shadow=0;labelBackgroundColor=none;strokeColor=default;strokeWidth=1;fontFamily=Helvetica;fontSize=12;fontColor=default;endArrow=block;endFill=0;" edge="1" parent="1" source="BLAmx-ZhUNznUgMC7xiz-4">
          <mxGeometry relative="1" as="geometry">
            <mxPoint x="280" y="320" as="targetPoint" />
          </mxGeometry>
        </mxCell>
        <mxCell id="BLAmx-ZhUNznUgMC7xiz-3" value="Yes" style="edgeLabel;html=1;align=center;verticalAlign=middle;resizable=0;points=[];fontSize=12;fontFamily=Helvetica;fontColor=default;" connectable="0" vertex="1" parent="BLAmx-ZhUNznUgMC7xiz-2">
          <mxGeometry x="0.1386" y="2" relative="1" as="geometry">
            <mxPoint x="16" y="-6" as="offset" />
          </mxGeometry>
        </mxCell>
        <mxCell id="BLAmx-ZhUNznUgMC7xiz-4" value="Recipe needs other Ingredients" style="strokeWidth=2;html=1;shape=mxgraph.flowchart.decision;whiteSpace=wrap;fontFamily=Helvetica;fontSize=12;fontColor=#000000;fillColor=#f0a30a;strokeColor=#BD7000;" vertex="1" parent="1">
          <mxGeometry x="200" y="190" width="160" height="80" as="geometry" />
        </mxCell>
        <mxCell id="BLAmx-ZhUNznUgMC7xiz-5" style="edgeStyle=orthogonalEdgeStyle;shape=connector;rounded=0;jumpStyle=none;jumpSize=6;orthogonalLoop=1;jettySize=auto;html=1;entryX=0.5;entryY=0;entryDx=0;entryDy=0;entryPerimeter=0;shadow=0;labelBackgroundColor=none;strokeColor=default;strokeWidth=1;fontFamily=Helvetica;fontSize=12;fontColor=default;endArrow=block;endFill=0;exitX=0.5;exitY=1;exitDx=0;exitDy=0;exitPerimeter=0;" edge="1" parent="1" source="BLAmx-ZhUNznUgMC7xiz-1" target="BLAmx-ZhUNznUgMC7xiz-4">
          <mxGeometry relative="1" as="geometry">
            <mxPoint x="280" y="130" as="sourcePoint" />
          </mxGeometry>
        </mxCell>
        <mxCell id="BLAmx-ZhUNznUgMC7xiz-6" style="edgeStyle=orthogonalEdgeStyle;shape=connector;rounded=0;jumpStyle=none;jumpSize=6;orthogonalLoop=1;jettySize=auto;html=1;shadow=0;labelBackgroundColor=none;strokeColor=default;strokeWidth=1;fontFamily=Helvetica;fontSize=12;fontColor=default;endArrow=block;endFill=0;exitX=0;exitY=0.5;exitDx=0;exitDy=0;exitPerimeter=0;entryX=1;entryY=0.5;entryDx=0;entryDy=0;entryPerimeter=0;" edge="1" parent="1" source="BLAmx-ZhUNznUgMC7xiz-4" target="BLAmx-ZhUNznUgMC7xiz-8">
          <mxGeometry relative="1" as="geometry">
            <mxPoint x="290" y="280" as="sourcePoint" />
            <mxPoint x="140" y="230" as="targetPoint" />
          </mxGeometry>
        </mxCell>
        <mxCell id="BLAmx-ZhUNznUgMC7xiz-7" value="No" style="edgeLabel;html=1;align=center;verticalAlign=middle;resizable=0;points=[];fontSize=12;fontFamily=Helvetica;fontColor=default;" connectable="0" vertex="1" parent="BLAmx-ZhUNznUgMC7xiz-6">
          <mxGeometry x="0.1386" y="2" relative="1" as="geometry">
            <mxPoint x="4" y="-12" as="offset" />
          </mxGeometry>
        </mxCell>
        <mxCell id="BLAmx-ZhUNznUgMC7xiz-8" value="End" style="strokeWidth=2;html=1;shape=mxgraph.flowchart.terminator;whiteSpace=wrap;rounded=0;fontFamily=Helvetica;fontSize=12;fontColor=#ffffff;fillColor=#d80073;strokeColor=#A50040;" vertex="1" parent="1">
          <mxGeometry x="40" y="200" width="100" height="60" as="geometry" />
        </mxCell>
        <mxCell id="BLAmx-ZhUNznUgMC7xiz-9" style="edgeStyle=orthogonalEdgeStyle;shape=connector;rounded=0;jumpStyle=none;jumpSize=6;orthogonalLoop=1;jettySize=auto;html=1;entryX=0;entryY=0.5;entryDx=0;entryDy=0;shadow=0;labelBackgroundColor=none;strokeColor=default;strokeWidth=1;fontFamily=Helvetica;fontSize=12;fontColor=default;endArrow=block;endFill=0;" edge="1" parent="1" source="BLAmx-ZhUNznUgMC7xiz-11" target="BLAmx-ZhUNznUgMC7xiz-15">
          <mxGeometry relative="1" as="geometry" />
        </mxCell>
        <mxCell id="BLAmx-ZhUNznUgMC7xiz-10" value="No" style="edgeLabel;html=1;align=center;verticalAlign=middle;resizable=0;points=[];fontSize=12;fontFamily=Helvetica;fontColor=default;" connectable="0" vertex="1" parent="BLAmx-ZhUNznUgMC7xiz-9">
          <mxGeometry x="-0.3533" relative="1" as="geometry">
            <mxPoint x="4" y="-15" as="offset" />
          </mxGeometry>
        </mxCell>
        <mxCell id="BLAmx-ZhUNznUgMC7xiz-11" value="ingredient needs processing" style="strokeWidth=2;html=1;shape=mxgraph.flowchart.decision;whiteSpace=wrap;rounded=0;fontFamily=Helvetica;fontSize=12;fontColor=#000000;fillColor=#f0a30a;strokeColor=#BD7000;" vertex="1" parent="1">
          <mxGeometry x="220" y="320" width="120" height="90" as="geometry" />
        </mxCell>
        <mxCell id="BLAmx-ZhUNznUgMC7xiz-12" style="edgeStyle=orthogonalEdgeStyle;shape=connector;rounded=0;jumpStyle=none;jumpSize=6;orthogonalLoop=1;jettySize=auto;html=1;entryX=1;entryY=0.5;entryDx=0;entryDy=0;entryPerimeter=0;shadow=0;labelBackgroundColor=none;strokeColor=default;strokeWidth=1;fontFamily=Helvetica;fontSize=12;fontColor=default;endArrow=block;endFill=0;" edge="1" parent="1" source="BLAmx-ZhUNznUgMC7xiz-13" target="BLAmx-ZhUNznUgMC7xiz-4">
          <mxGeometry relative="1" as="geometry" />
        </mxCell>
        <mxCell id="BLAmx-ZhUNznUgMC7xiz-13" value="Add final Ingredient &lt;br&gt;to the plate" style="rounded=0;whiteSpace=wrap;html=1;absoluteArcSize=1;arcSize=14;strokeWidth=2;fontFamily=Helvetica;fontSize=12;fontColor=#ffffff;fillColor=#1ba1e2;strokeColor=#006EAF;" vertex="1" parent="1">
          <mxGeometry x="400" y="200" width="100" height="60" as="geometry" />
        </mxCell>
        <mxCell id="BLAmx-ZhUNznUgMC7xiz-14" style="edgeStyle=orthogonalEdgeStyle;shape=connector;rounded=0;jumpStyle=none;jumpSize=6;orthogonalLoop=1;jettySize=auto;html=1;entryX=0.443;entryY=1.03;entryDx=0;entryDy=0;entryPerimeter=0;shadow=0;labelBackgroundColor=none;strokeColor=default;strokeWidth=1;fontFamily=Helvetica;fontSize=12;fontColor=default;endArrow=block;endFill=0;" edge="1" parent="1" source="BLAmx-ZhUNznUgMC7xiz-15" target="BLAmx-ZhUNznUgMC7xiz-13">
          <mxGeometry relative="1" as="geometry" />
        </mxCell>
        <mxCell id="BLAmx-ZhUNznUgMC7xiz-15" value="Pick up final ingredient from container" style="rounded=0;whiteSpace=wrap;html=1;absoluteArcSize=1;arcSize=14;strokeWidth=2;fontFamily=Helvetica;fontSize=12;fontColor=#ffffff;fillColor=#1ba1e2;strokeColor=#006EAF;" vertex="1" parent="1">
          <mxGeometry x="390" y="335" width="110" height="60" as="geometry" />
        </mxCell>
        <mxCell id="BLAmx-ZhUNznUgMC7xiz-16" style="edgeStyle=orthogonalEdgeStyle;shape=connector;rounded=0;jumpStyle=none;jumpSize=6;orthogonalLoop=1;jettySize=auto;html=1;exitX=0.5;exitY=1;exitDx=0;exitDy=0;exitPerimeter=0;shadow=0;labelBackgroundColor=none;strokeColor=default;strokeWidth=1;fontFamily=Helvetica;fontSize=12;fontColor=default;endArrow=block;endFill=0;entryX=0.5;entryY=0;entryDx=0;entryDy=0;entryPerimeter=0;" edge="1" parent="1" source="BLAmx-ZhUNznUgMC7xiz-11" target="BLAmx-ZhUNznUgMC7xiz-20">
          <mxGeometry relative="1" as="geometry">
            <mxPoint x="220" y="365" as="sourcePoint" />
            <mxPoint x="150" y="365" as="targetPoint" />
          </mxGeometry>
        </mxCell>
        <mxCell id="BLAmx-ZhUNznUgMC7xiz-17" value="Yes" style="edgeLabel;html=1;align=center;verticalAlign=middle;resizable=0;points=[];fontSize=12;fontFamily=Helvetica;fontColor=default;" connectable="0" vertex="1" parent="BLAmx-ZhUNznUgMC7xiz-16">
          <mxGeometry x="-0.1943" y="1" relative="1" as="geometry">
            <mxPoint x="19" y="-4" as="offset" />
          </mxGeometry>
        </mxCell>
        <mxCell id="BLAmx-ZhUNznUgMC7xiz-18" style="edgeStyle=orthogonalEdgeStyle;shape=connector;rounded=0;jumpStyle=none;jumpSize=6;orthogonalLoop=1;jettySize=auto;html=1;entryX=0.5;entryY=0;entryDx=0;entryDy=0;entryPerimeter=0;shadow=0;labelBackgroundColor=none;strokeColor=default;strokeWidth=1;fontFamily=Helvetica;fontSize=12;fontColor=default;endArrow=block;endFill=0;" edge="1" parent="1" source="BLAmx-ZhUNznUgMC7xiz-20" target="BLAmx-ZhUNznUgMC7xiz-31">
          <mxGeometry relative="1" as="geometry" />
        </mxCell>
        <mxCell id="BLAmx-ZhUNznUgMC7xiz-19" value="No" style="edgeLabel;html=1;align=center;verticalAlign=middle;resizable=0;points=[];fontSize=12;fontFamily=Helvetica;fontColor=default;" connectable="0" vertex="1" parent="BLAmx-ZhUNznUgMC7xiz-18">
          <mxGeometry x="0.2536" y="-1" relative="1" as="geometry">
            <mxPoint x="21" y="-14" as="offset" />
          </mxGeometry>
        </mxCell>
        <mxCell id="BLAmx-ZhUNznUgMC7xiz-20" value="ingredient needs cooking" style="strokeWidth=2;html=1;shape=mxgraph.flowchart.decision;whiteSpace=wrap;rounded=0;fontFamily=Helvetica;fontSize=12;fontColor=#000000;fillColor=#f0a30a;strokeColor=#BD7000;" vertex="1" parent="1">
          <mxGeometry x="220" y="470" width="120" height="90" as="geometry" />
        </mxCell>
        <mxCell id="BLAmx-ZhUNznUgMC7xiz-21" style="edgeStyle=orthogonalEdgeStyle;shape=connector;rounded=0;jumpStyle=none;jumpSize=6;orthogonalLoop=1;jettySize=auto;html=1;exitX=1;exitY=0.5;exitDx=0;exitDy=0;exitPerimeter=0;shadow=0;labelBackgroundColor=none;strokeColor=default;strokeWidth=1;fontFamily=Helvetica;fontSize=12;fontColor=default;endArrow=block;endFill=0;entryX=0;entryY=0.5;entryDx=0;entryDy=0;" edge="1" parent="1" source="BLAmx-ZhUNznUgMC7xiz-20" target="BLAmx-ZhUNznUgMC7xiz-24">
          <mxGeometry relative="1" as="geometry">
            <mxPoint x="290" y="420" as="sourcePoint" />
            <mxPoint x="390" y="515" as="targetPoint" />
          </mxGeometry>
        </mxCell>
        <mxCell id="BLAmx-ZhUNznUgMC7xiz-22" value="Yes" style="edgeLabel;html=1;align=center;verticalAlign=middle;resizable=0;points=[];fontSize=12;fontFamily=Helvetica;fontColor=default;" connectable="0" vertex="1" parent="BLAmx-ZhUNznUgMC7xiz-21">
          <mxGeometry x="-0.1943" y="1" relative="1" as="geometry">
            <mxPoint y="-14" as="offset" />
          </mxGeometry>
        </mxCell>
        <mxCell id="BLAmx-ZhUNznUgMC7xiz-23" style="edgeStyle=orthogonalEdgeStyle;shape=connector;rounded=0;jumpStyle=none;jumpSize=6;orthogonalLoop=1;jettySize=auto;html=1;shadow=0;labelBackgroundColor=none;strokeColor=default;strokeWidth=1;fontFamily=Helvetica;fontSize=12;fontColor=default;endArrow=block;endFill=0;" edge="1" parent="1" source="BLAmx-ZhUNznUgMC7xiz-24" target="BLAmx-ZhUNznUgMC7xiz-26">
          <mxGeometry relative="1" as="geometry" />
        </mxCell>
        <mxCell id="BLAmx-ZhUNznUgMC7xiz-24" value="Pick up base ingredient from container" style="rounded=0;whiteSpace=wrap;html=1;absoluteArcSize=1;arcSize=14;strokeWidth=2;fontFamily=Helvetica;fontSize=12;fontColor=#ffffff;fillColor=#1ba1e2;strokeColor=#006EAF;" vertex="1" parent="1">
          <mxGeometry x="390" y="485" width="110" height="60" as="geometry" />
        </mxCell>
        <mxCell id="BLAmx-ZhUNznUgMC7xiz-25" style="edgeStyle=orthogonalEdgeStyle;shape=connector;rounded=0;jumpStyle=none;jumpSize=6;orthogonalLoop=1;jettySize=auto;html=1;shadow=0;labelBackgroundColor=none;strokeColor=default;strokeWidth=1;fontFamily=Helvetica;fontSize=12;fontColor=default;endArrow=block;endFill=0;entryX=0;entryY=0.5;entryDx=0;entryDy=0;entryPerimeter=0;" edge="1" parent="1" source="BLAmx-ZhUNznUgMC7xiz-26" target="BLAmx-ZhUNznUgMC7xiz-28">
          <mxGeometry relative="1" as="geometry">
            <mxPoint x="445" y="670" as="targetPoint" />
          </mxGeometry>
        </mxCell>
        <mxCell id="BLAmx-ZhUNznUgMC7xiz-26" value="Place base ingredient on stove" style="rounded=0;whiteSpace=wrap;html=1;absoluteArcSize=1;arcSize=14;strokeWidth=2;fontFamily=Helvetica;fontSize=12;fontColor=#ffffff;fillColor=#1ba1e2;strokeColor=#006EAF;" vertex="1" parent="1">
          <mxGeometry x="540" y="485" width="110" height="60" as="geometry" />
        </mxCell>
        <mxCell id="BLAmx-ZhUNznUgMC7xiz-27" style="edgeStyle=orthogonalEdgeStyle;shape=connector;rounded=0;jumpStyle=none;jumpSize=6;orthogonalLoop=1;jettySize=auto;html=1;entryX=0;entryY=0.5;entryDx=0;entryDy=0;shadow=0;labelBackgroundColor=none;strokeColor=default;strokeWidth=1;fontFamily=Helvetica;fontSize=12;fontColor=default;endArrow=block;endFill=0;" edge="1" parent="1" source="BLAmx-ZhUNznUgMC7xiz-28" target="BLAmx-ZhUNznUgMC7xiz-30">
          <mxGeometry relative="1" as="geometry" />
        </mxCell>
        <mxCell id="BLAmx-ZhUNznUgMC7xiz-28" value="Wait for base ingredient to cook" style="strokeWidth=2;html=1;shape=mxgraph.flowchart.delay;whiteSpace=wrap;rounded=0;fontFamily=Helvetica;fontSize=12;fontColor=#ffffff;fillColor=#60a917;strokeColor=#2D7600;" vertex="1" parent="1">
          <mxGeometry x="680" y="485" width="110" height="60" as="geometry" />
        </mxCell>
        <mxCell id="BLAmx-ZhUNznUgMC7xiz-29" style="edgeStyle=orthogonalEdgeStyle;shape=connector;rounded=0;jumpStyle=none;jumpSize=6;orthogonalLoop=1;jettySize=auto;html=1;entryX=0;entryY=0.5;entryDx=0;entryDy=0;entryPerimeter=0;shadow=0;labelBackgroundColor=none;strokeColor=default;strokeWidth=1;fontFamily=Helvetica;fontSize=12;fontColor=default;endArrow=block;endFill=0;" edge="1" parent="1" source="BLAmx-ZhUNznUgMC7xiz-30" target="BLAmx-ZhUNznUgMC7xiz-45">
          <mxGeometry relative="1" as="geometry" />
        </mxCell>
        <mxCell id="BLAmx-ZhUNznUgMC7xiz-30" value="Pick up final ingredient from stove" style="rounded=0;whiteSpace=wrap;html=1;absoluteArcSize=1;arcSize=14;strokeWidth=2;fontFamily=Helvetica;fontSize=12;fontColor=#ffffff;fillColor=#1ba1e2;strokeColor=#006EAF;" vertex="1" parent="1">
          <mxGeometry x="820" y="485" width="110" height="60" as="geometry" />
        </mxCell>
        <mxCell id="BLAmx-ZhUNznUgMC7xiz-31" value="ingredient needs cutting" style="strokeWidth=2;html=1;shape=mxgraph.flowchart.decision;whiteSpace=wrap;rounded=0;fontFamily=Helvetica;fontSize=12;fontColor=#000000;fillColor=#f0a30a;strokeColor=#BD7000;" vertex="1" parent="1">
          <mxGeometry x="220" y="630" width="120" height="90" as="geometry" />
        </mxCell>
        <mxCell id="BLAmx-ZhUNznUgMC7xiz-32" style="edgeStyle=orthogonalEdgeStyle;shape=connector;rounded=0;jumpStyle=none;jumpSize=6;orthogonalLoop=1;jettySize=auto;html=1;exitX=1;exitY=0.5;exitDx=0;exitDy=0;exitPerimeter=0;shadow=0;labelBackgroundColor=none;strokeColor=default;strokeWidth=1;fontFamily=Helvetica;fontSize=12;fontColor=default;endArrow=block;endFill=0;entryX=0;entryY=0.5;entryDx=0;entryDy=0;" edge="1" parent="1" source="BLAmx-ZhUNznUgMC7xiz-31" target="BLAmx-ZhUNznUgMC7xiz-35">
          <mxGeometry relative="1" as="geometry">
            <mxPoint x="290" y="580" as="sourcePoint" />
            <mxPoint x="390" y="675" as="targetPoint" />
          </mxGeometry>
        </mxCell>
        <mxCell id="BLAmx-ZhUNznUgMC7xiz-33" value="Yes" style="edgeLabel;html=1;align=center;verticalAlign=middle;resizable=0;points=[];fontSize=12;fontFamily=Helvetica;fontColor=default;" connectable="0" vertex="1" parent="BLAmx-ZhUNznUgMC7xiz-32">
          <mxGeometry x="-0.1943" y="1" relative="1" as="geometry">
            <mxPoint y="-14" as="offset" />
          </mxGeometry>
        </mxCell>
        <mxCell id="BLAmx-ZhUNznUgMC7xiz-34" style="edgeStyle=orthogonalEdgeStyle;shape=connector;rounded=0;jumpStyle=none;jumpSize=6;orthogonalLoop=1;jettySize=auto;html=1;shadow=0;labelBackgroundColor=none;strokeColor=default;strokeWidth=1;fontFamily=Helvetica;fontSize=12;fontColor=default;endArrow=block;endFill=0;" edge="1" parent="1" source="BLAmx-ZhUNznUgMC7xiz-35" target="BLAmx-ZhUNznUgMC7xiz-37">
          <mxGeometry relative="1" as="geometry" />
        </mxCell>
        <mxCell id="BLAmx-ZhUNznUgMC7xiz-35" value="Pick up base ingredient from container" style="rounded=0;whiteSpace=wrap;html=1;absoluteArcSize=1;arcSize=14;strokeWidth=2;fontFamily=Helvetica;fontSize=12;fontColor=#ffffff;fillColor=#1ba1e2;strokeColor=#006EAF;" vertex="1" parent="1">
          <mxGeometry x="390" y="645" width="110" height="60" as="geometry" />
        </mxCell>
        <mxCell id="BLAmx-ZhUNznUgMC7xiz-36" style="edgeStyle=orthogonalEdgeStyle;shape=connector;rounded=0;jumpStyle=none;jumpSize=6;orthogonalLoop=1;jettySize=auto;html=1;shadow=0;labelBackgroundColor=none;strokeColor=default;strokeWidth=1;fontFamily=Helvetica;fontSize=12;fontColor=default;endArrow=block;endFill=0;entryX=0;entryY=0.5;entryDx=0;entryDy=0;entryPerimeter=0;" edge="1" parent="1" source="BLAmx-ZhUNznUgMC7xiz-37">
          <mxGeometry relative="1" as="geometry">
            <mxPoint x="680" y="675" as="targetPoint" />
          </mxGeometry>
        </mxCell>
        <mxCell id="BLAmx-ZhUNznUgMC7xiz-37" value="Place base ingredient on cutting counter" style="rounded=0;whiteSpace=wrap;html=1;absoluteArcSize=1;arcSize=14;strokeWidth=2;fontFamily=Helvetica;fontSize=12;fontColor=#ffffff;fillColor=#1ba1e2;strokeColor=#006EAF;" vertex="1" parent="1">
          <mxGeometry x="540" y="645" width="110" height="60" as="geometry" />
        </mxCell>
        <mxCell id="BLAmx-ZhUNznUgMC7xiz-38" style="edgeStyle=orthogonalEdgeStyle;shape=connector;rounded=0;jumpStyle=none;jumpSize=6;orthogonalLoop=1;jettySize=auto;html=1;entryX=0;entryY=0.5;entryDx=0;entryDy=0;shadow=0;labelBackgroundColor=none;strokeColor=default;strokeWidth=1;fontFamily=Helvetica;fontSize=12;fontColor=default;endArrow=block;endFill=0;" edge="1" parent="1" target="BLAmx-ZhUNznUgMC7xiz-40">
          <mxGeometry relative="1" as="geometry">
            <mxPoint x="790" y="675" as="sourcePoint" />
          </mxGeometry>
        </mxCell>
        <mxCell id="BLAmx-ZhUNznUgMC7xiz-39" style="edgeStyle=orthogonalEdgeStyle;shape=connector;rounded=0;jumpStyle=none;jumpSize=6;orthogonalLoop=1;jettySize=auto;html=1;exitX=1;exitY=0.5;exitDx=0;exitDy=0;entryX=0.5;entryY=1;entryDx=0;entryDy=0;entryPerimeter=0;shadow=0;labelBackgroundColor=none;strokeColor=default;strokeWidth=1;fontFamily=Helvetica;fontSize=12;fontColor=default;endArrow=block;endFill=0;" edge="1" parent="1" source="BLAmx-ZhUNznUgMC7xiz-40" target="BLAmx-ZhUNznUgMC7xiz-45">
          <mxGeometry relative="1" as="geometry" />
        </mxCell>
        <mxCell id="BLAmx-ZhUNznUgMC7xiz-40" value="Pick up final ingredient from cutting counter" style="rounded=0;whiteSpace=wrap;html=1;absoluteArcSize=1;arcSize=14;strokeWidth=2;fontFamily=Helvetica;fontSize=12;fontColor=#ffffff;fillColor=#1ba1e2;strokeColor=#006EAF;" vertex="1" parent="1">
          <mxGeometry x="820" y="645" width="110" height="60" as="geometry" />
        </mxCell>
        <mxCell id="BLAmx-ZhUNznUgMC7xiz-41" style="edgeStyle=orthogonalEdgeStyle;shape=connector;rounded=0;jumpStyle=none;jumpSize=6;orthogonalLoop=1;jettySize=auto;html=1;shadow=0;labelBackgroundColor=none;strokeColor=default;strokeWidth=1;fontFamily=Helvetica;fontSize=12;fontColor=default;endArrow=block;endFill=0;exitX=0;exitY=0.5;exitDx=0;exitDy=0;exitPerimeter=0;entryX=1;entryY=0.5;entryDx=0;entryDy=0;entryPerimeter=0;" edge="1" parent="1" source="BLAmx-ZhUNznUgMC7xiz-31" target="BLAmx-ZhUNznUgMC7xiz-43">
          <mxGeometry relative="1" as="geometry">
            <mxPoint x="290" y="570" as="sourcePoint" />
            <mxPoint x="280" y="780" as="targetPoint" />
          </mxGeometry>
        </mxCell>
        <mxCell id="BLAmx-ZhUNznUgMC7xiz-42" value="No" style="edgeLabel;html=1;align=center;verticalAlign=middle;resizable=0;points=[];fontSize=12;fontFamily=Helvetica;fontColor=default;" connectable="0" vertex="1" parent="BLAmx-ZhUNznUgMC7xiz-41">
          <mxGeometry x="0.2536" y="-1" relative="1" as="geometry">
            <mxPoint x="21" y="-14" as="offset" />
          </mxGeometry>
        </mxCell>
        <mxCell id="BLAmx-ZhUNznUgMC7xiz-43" value="Abort, Error" style="strokeWidth=2;html=1;shape=mxgraph.flowchart.terminator;whiteSpace=wrap;rounded=0;fontFamily=Helvetica;fontSize=12;fontColor=#ffffff;fillColor=#d80073;strokeColor=#A50040;" vertex="1" parent="1">
          <mxGeometry x="40" y="645" width="100" height="60" as="geometry" />
        </mxCell>
        <mxCell id="BLAmx-ZhUNznUgMC7xiz-44" style="edgeStyle=orthogonalEdgeStyle;shape=connector;rounded=0;jumpStyle=none;jumpSize=6;orthogonalLoop=1;jettySize=auto;html=1;entryX=1;entryY=0.5;entryDx=0;entryDy=0;shadow=0;labelBackgroundColor=none;strokeColor=default;strokeWidth=1;fontFamily=Helvetica;fontSize=12;fontColor=default;endArrow=block;endFill=0;" edge="1" parent="1" source="BLAmx-ZhUNznUgMC7xiz-45" target="BLAmx-ZhUNznUgMC7xiz-13">
          <mxGeometry relative="1" as="geometry">
            <Array as="points">
              <mxPoint x="1000" y="230" />
            </Array>
          </mxGeometry>
        </mxCell>
        <mxCell id="BLAmx-ZhUNznUgMC7xiz-45" value="" style="verticalLabelPosition=bottom;verticalAlign=top;html=1;shape=mxgraph.flowchart.summing_function;rounded=0;fontFamily=Helvetica;fontSize=12;fontColor=default;" vertex="1" parent="1">
          <mxGeometry x="970" y="485" width="60" height="60" as="geometry" />
        </mxCell>
        <mxCell id="BLAmx-ZhUNznUgMC7xiz-46" value="Cut base ingredient" style="rounded=0;whiteSpace=wrap;html=1;absoluteArcSize=1;arcSize=14;strokeWidth=2;fontFamily=Helvetica;fontSize=12;fontColor=#ffffff;fillColor=#1ba1e2;strokeColor=#006EAF;" vertex="1" parent="1">
          <mxGeometry x="680" y="645" width="110" height="60" as="geometry" />
        </mxCell>
        <mxCell id="BLAmx-ZhUNznUgMC7xiz-47" value="&lt;h1&gt;Recipe ingredients flow&lt;/h1&gt;" style="text;html=1;strokeColor=none;fillColor=none;spacing=5;spacingTop=-20;whiteSpace=wrap;overflow=hidden;rounded=0;fontFamily=Helvetica;fontSize=12;fontColor=default;" vertex="1" parent="1">
          <mxGeometry x="400" y="40" width="310" height="50" as="geometry" />
        </mxCell>
      </root>
    </mxGraphModel>
  </diagram>
  <diagram id="eLgJ1QEGmkpfTIIrLmU9" name="combined">
    <mxGraphModel grid="1" page="1" gridSize="10" guides="1" tooltips="1" connect="1" arrows="1" fold="1" pageScale="1" pageWidth="850" pageHeight="1100" math="0" shadow="0">
      <root>
        <mxCell id="0" />
        <mxCell id="1" parent="0" />
        <mxCell id="qmFnf9-849JERfV-ilKU-1" value="" style="html=1;jettySize=auto;orthogonalLoop=1;fontSize=11;endArrow=block;endFill=0;strokeWidth=1;shadow=0;labelBackgroundColor=none;edgeStyle=orthogonalEdgeStyle;exitX=0.5;exitY=1;exitDx=0;exitDy=0;exitPerimeter=0;rounded=0;jumpStyle=none;jumpSize=6;" edge="1" parent="1" source="qmFnf9-849JERfV-ilKU-11" target="qmFnf9-849JERfV-ilKU-4">
          <mxGeometry relative="1" as="geometry">
            <mxPoint x="90" y="110" as="sourcePoint" />
          </mxGeometry>
        </mxCell>
        <mxCell id="qmFnf9-849JERfV-ilKU-2" value="Yes" style="html=1;jettySize=auto;orthogonalLoop=1;fontSize=11;endArrow=block;endFill=0;strokeWidth=1;shadow=0;labelBackgroundColor=none;edgeStyle=orthogonalEdgeStyle;entryX=0.5;entryY=0;entryDx=0;entryDy=0;rounded=0;jumpStyle=none;jumpSize=6;" edge="1" parent="1" source="qmFnf9-849JERfV-ilKU-4" target="qmFnf9-849JERfV-ilKU-10">
          <mxGeometry y="20" relative="1" as="geometry">
            <mxPoint as="offset" />
            <mxPoint x="90" y="280" as="targetPoint" />
          </mxGeometry>
        </mxCell>
        <mxCell id="qmFnf9-849JERfV-ilKU-3" value="No" style="edgeStyle=orthogonalEdgeStyle;rounded=0;html=1;jettySize=auto;orthogonalLoop=1;fontSize=11;endArrow=block;endFill=0;endSize=8;strokeWidth=1;shadow=0;labelBackgroundColor=none;entryX=-0.011;entryY=0.497;entryDx=0;entryDy=0;entryPerimeter=0;" edge="1" parent="1" source="qmFnf9-849JERfV-ilKU-4" target="qmFnf9-849JERfV-ilKU-12">
          <mxGeometry y="10" relative="1" as="geometry">
            <mxPoint as="offset" />
            <mxPoint x="190" y="200" as="targetPoint" />
          </mxGeometry>
        </mxCell>
        <mxCell id="qmFnf9-849JERfV-ilKU-4" value="has recipe&lt;br&gt;to do" style="rhombus;whiteSpace=wrap;html=1;shadow=0;fontFamily=Helvetica;fontSize=12;align=center;strokeWidth=2;spacing=6;spacingTop=-4;fillColor=#f0a30a;fontColor=#000000;strokeColor=#BD7000;rounded=0;" vertex="1" parent="1">
          <mxGeometry x="40" y="160" width="100" height="80" as="geometry" />
        </mxCell>
        <mxCell id="qmFnf9-849JERfV-ilKU-5" style="edgeStyle=orthogonalEdgeStyle;orthogonalLoop=1;jettySize=auto;html=1;entryX=1;entryY=0.5;entryDx=0;entryDy=0;entryPerimeter=0;labelBackgroundColor=none;endArrow=block;endFill=0;strokeWidth=1;shadow=0;exitX=0.399;exitY=-0.054;exitDx=0;exitDy=0;exitPerimeter=0;rounded=0;jumpStyle=none;jumpSize=6;" edge="1" parent="1" source="qmFnf9-849JERfV-ilKU-12" target="qmFnf9-849JERfV-ilKU-11">
          <mxGeometry relative="1" as="geometry">
            <mxPoint x="290" y="130" as="sourcePoint" />
            <mxPoint x="90" y="130" as="targetPoint" />
            <Array as="points">
              <mxPoint x="230" y="80" />
            </Array>
          </mxGeometry>
        </mxCell>
        <mxCell id="qmFnf9-849JERfV-ilKU-6" value="Yes" style="html=1;jettySize=auto;orthogonalLoop=1;fontSize=11;endArrow=block;endFill=0;strokeWidth=1;shadow=0;labelBackgroundColor=none;edgeStyle=orthogonalEdgeStyle;entryX=0.5;entryY=0;entryDx=0;entryDy=0;entryPerimeter=0;rounded=0;jumpStyle=none;jumpSize=6;startArrow=none;exitX=0.5;exitY=1;exitDx=0;exitDy=0;" edge="1" parent="1" source="qmFnf9-849JERfV-ilKU-10" target="qmFnf9-849JERfV-ilKU-22">
          <mxGeometry x="-0.6" y="20" relative="1" as="geometry">
            <mxPoint as="offset" />
            <mxPoint x="90" y="370" as="sourcePoint" />
            <mxPoint x="90" y="460" as="targetPoint" />
          </mxGeometry>
        </mxCell>
        <mxCell id="qmFnf9-849JERfV-ilKU-7" value="No" style="edgeStyle=orthogonalEdgeStyle;html=1;jettySize=auto;orthogonalLoop=1;fontSize=11;endArrow=block;endFill=0;strokeWidth=1;shadow=0;labelBackgroundColor=none;exitX=1;exitY=0.5;exitDx=0;exitDy=0;entryX=0;entryY=0.5;entryDx=0;entryDy=0;rounded=0;jumpStyle=none;jumpSize=6;" edge="1" parent="1" source="qmFnf9-849JERfV-ilKU-10" target="qmFnf9-849JERfV-ilKU-13">
          <mxGeometry y="20" relative="1" as="geometry">
            <mxPoint as="offset" />
            <mxPoint x="140" y="320" as="sourcePoint" />
            <mxPoint x="190" y="320" as="targetPoint" />
          </mxGeometry>
        </mxCell>
        <mxCell id="qmFnf9-849JERfV-ilKU-8" style="edgeStyle=orthogonalEdgeStyle;orthogonalLoop=1;jettySize=auto;html=1;shadow=0;labelBackgroundColor=none;strokeColor=default;strokeWidth=1;fontFamily=Helvetica;fontSize=11;fontColor=default;endArrow=block;endFill=0;rounded=0;jumpStyle=none;jumpSize=6;entryX=1;entryY=0.5;entryDx=0;entryDy=0;entryPerimeter=0;" edge="1" parent="1" source="qmFnf9-849JERfV-ilKU-9" target="qmFnf9-849JERfV-ilKU-22">
          <mxGeometry relative="1" as="geometry">
            <mxPoint x="90" y="420" as="targetPoint" />
          </mxGeometry>
        </mxCell>
        <mxCell id="qmFnf9-849JERfV-ilKU-9" value="PickUp plate where available" style="rounded=0;whiteSpace=wrap;html=1;fontSize=12;glass=0;strokeWidth=2;shadow=0;fillColor=#1ba1e2;fontColor=#ffffff;strokeColor=#006EAF;" vertex="1" parent="1">
          <mxGeometry x="190" y="400" width="120" height="40" as="geometry" />
        </mxCell>
        <mxCell id="qmFnf9-849JERfV-ilKU-10" value="Has Plate &lt;br&gt;for recipe" style="rhombus;whiteSpace=wrap;html=1;shadow=0;fontFamily=Helvetica;fontSize=12;align=center;strokeWidth=2;spacing=6;spacingTop=-4;fillColor=#f0a30a;fontColor=#000000;strokeColor=#BD7000;rounded=0;" vertex="1" parent="1">
          <mxGeometry x="40" y="280" width="100" height="80" as="geometry" />
        </mxCell>
        <mxCell id="qmFnf9-849JERfV-ilKU-11" value="Start" style="strokeWidth=2;html=1;shape=mxgraph.flowchart.start_1;whiteSpace=wrap;shadow=0;spacing=6;spacingTop=-4;fillColor=#d80073;fontColor=#ffffff;strokeColor=#A50040;rounded=0;" vertex="1" parent="1">
          <mxGeometry x="40" y="50" width="100" height="60" as="geometry" />
        </mxCell>
        <mxCell id="qmFnf9-849JERfV-ilKU-12" value="Wait for new Recipe" style="strokeWidth=2;html=1;shape=mxgraph.flowchart.delay;whiteSpace=wrap;shadow=0;spacing=6;spacingTop=-4;fillColor=#60a917;fontColor=#ffffff;strokeColor=#2D7600;rounded=0;" vertex="1" parent="1">
          <mxGeometry x="190" y="180" width="100" height="40" as="geometry" />
        </mxCell>
        <mxCell id="qmFnf9-849JERfV-ilKU-13" value="Any plate available" style="rhombus;whiteSpace=wrap;html=1;shadow=0;fontFamily=Helvetica;fontSize=12;align=center;strokeWidth=2;spacing=6;spacingTop=-4;fillColor=#f0a30a;fontColor=#000000;strokeColor=#BD7000;rounded=0;" vertex="1" parent="1">
          <mxGeometry x="200" y="280" width="100" height="80" as="geometry" />
        </mxCell>
        <mxCell id="qmFnf9-849JERfV-ilKU-14" value="No" style="edgeStyle=orthogonalEdgeStyle;html=1;jettySize=auto;orthogonalLoop=1;fontSize=11;endArrow=block;endFill=0;strokeWidth=1;shadow=0;labelBackgroundColor=none;exitX=1;exitY=0.5;exitDx=0;exitDy=0;rounded=0;jumpStyle=none;jumpSize=6;" edge="1" parent="1" source="qmFnf9-849JERfV-ilKU-13">
          <mxGeometry x="-0.0083" y="-20" relative="1" as="geometry">
            <mxPoint x="20" y="-20" as="offset" />
            <mxPoint x="149.96428571428578" y="210.02857142857135" as="sourcePoint" />
            <mxPoint x="360" y="320" as="targetPoint" />
          </mxGeometry>
        </mxCell>
        <mxCell id="qmFnf9-849JERfV-ilKU-15" value="Wait for Plate" style="strokeWidth=2;html=1;shape=mxgraph.flowchart.delay;whiteSpace=wrap;shadow=0;spacing=6;spacingTop=-4;fillColor=#60a917;fontColor=#ffffff;strokeColor=#2D7600;rounded=0;" vertex="1" parent="1">
          <mxGeometry x="360" y="300" width="100" height="40" as="geometry" />
        </mxCell>
        <mxCell id="qmFnf9-849JERfV-ilKU-16" value="Yes" style="html=1;jettySize=auto;orthogonalLoop=1;fontSize=11;endArrow=block;endFill=0;strokeWidth=1;shadow=0;labelBackgroundColor=none;edgeStyle=orthogonalEdgeStyle;entryX=0.5;entryY=0;entryDx=0;entryDy=0;exitX=0.5;exitY=1;exitDx=0;exitDy=0;rounded=0;jumpStyle=none;jumpSize=6;" edge="1" parent="1" source="qmFnf9-849JERfV-ilKU-13" target="qmFnf9-849JERfV-ilKU-9">
          <mxGeometry y="20" relative="1" as="geometry">
            <mxPoint as="offset" />
            <mxPoint x="100" y="250" as="sourcePoint" />
            <mxPoint x="100" y="290" as="targetPoint" />
          </mxGeometry>
        </mxCell>
        <mxCell id="qmFnf9-849JERfV-ilKU-17" value="" style="html=1;jettySize=auto;orthogonalLoop=1;fontSize=11;endArrow=block;endFill=0;strokeWidth=1;shadow=0;labelBackgroundColor=none;edgeStyle=orthogonalEdgeStyle;entryX=1;entryY=0.5;entryDx=0;entryDy=0;exitX=0.5;exitY=1;exitDx=0;exitDy=0;rounded=0;jumpStyle=none;jumpSize=6;" edge="1" parent="1" target="qmFnf9-849JERfV-ilKU-9">
          <mxGeometry y="20" relative="1" as="geometry">
            <mxPoint as="offset" />
            <mxPoint x="409.71000000000004" y="340" as="sourcePoint" />
            <mxPoint x="409.71000000000004" y="400" as="targetPoint" />
            <Array as="points">
              <mxPoint x="410" y="420" />
            </Array>
          </mxGeometry>
        </mxCell>
        <mxCell id="qmFnf9-849JERfV-ilKU-18" style="edgeStyle=orthogonalEdgeStyle;orthogonalLoop=1;jettySize=auto;html=1;shadow=0;labelBackgroundColor=none;strokeColor=default;strokeWidth=1;fontFamily=Helvetica;fontSize=11;fontColor=default;endArrow=block;endFill=0;entryX=0;entryY=0.5;entryDx=0;entryDy=0;exitX=1;exitY=0.5;exitDx=0;exitDy=0;exitPerimeter=0;rounded=0;jumpStyle=none;jumpSize=6;" edge="1" parent="1" source="qmFnf9-849JERfV-ilKU-19" target="qmFnf9-849JERfV-ilKU-29">
          <mxGeometry relative="1" as="geometry">
            <mxPoint x="90" y="620" as="targetPoint" />
          </mxGeometry>
        </mxCell>
        <mxCell id="qmFnf9-849JERfV-ilKU-19" value="&lt;span style=&quot;color: rgb(255, 255, 255); font-family: Helvetica; font-size: 12px; font-style: normal; font-variant-ligatures: normal; font-variant-caps: normal; font-weight: 400; letter-spacing: normal; orphans: 2; text-align: center; text-indent: 0px; text-transform: none; widows: 2; word-spacing: 0px; -webkit-text-stroke-width: 0px; text-decoration-thickness: initial; text-decoration-style: initial; text-decoration-color: initial; float: none; display: inline !important;&quot;&gt;Prepare Recipe Ingredients&lt;/span&gt;" style="strokeWidth=2;html=1;shape=mxgraph.flowchart.document2;whiteSpace=wrap;size=0.1870129870129879;fontFamily=Helvetica;fontSize=11;fillColor=#0050ef;strokeColor=#001DBC;fontColor=#ffffff;rounded=0;" vertex="1" parent="1">
          <mxGeometry x="190" y="475" width="100" height="70" as="geometry" />
        </mxCell>
        <mxCell id="qmFnf9-849JERfV-ilKU-20" value="End" style="strokeWidth=2;html=1;shape=mxgraph.flowchart.terminator;whiteSpace=wrap;labelBackgroundColor=none;fontFamily=Helvetica;fontSize=11;fontColor=#ffffff;fillColor=#d80073;strokeColor=#A50040;rounded=0;" vertex="1" parent="1">
          <mxGeometry x="340" y="680" width="120" height="60" as="geometry" />
        </mxCell>
        <mxCell id="qmFnf9-849JERfV-ilKU-21" style="edgeStyle=orthogonalEdgeStyle;orthogonalLoop=1;jettySize=auto;html=1;entryX=0.5;entryY=0;entryDx=0;entryDy=0;labelBackgroundColor=none;endArrow=block;rounded=0;shadow=0;strokeWidth=1;endFill=0;" edge="1" parent="1" source="qmFnf9-849JERfV-ilKU-22" target="qmFnf9-849JERfV-ilKU-27">
          <mxGeometry relative="1" as="geometry" />
        </mxCell>
        <mxCell id="qmFnf9-849JERfV-ilKU-22" value="" style="verticalLabelPosition=bottom;verticalAlign=top;html=1;shape=mxgraph.flowchart.summing_function;" vertex="1" parent="1">
          <mxGeometry x="67.5" y="397.5" width="45" height="45" as="geometry" />
        </mxCell>
        <mxCell id="qmFnf9-849JERfV-ilKU-23" style="edgeStyle=orthogonalEdgeStyle;shape=connector;rounded=0;jumpStyle=none;jumpSize=6;orthogonalLoop=1;jettySize=auto;html=1;entryX=0.5;entryY=0;entryDx=0;entryDy=0;entryPerimeter=0;shadow=0;labelBackgroundColor=none;strokeColor=default;strokeWidth=1;fontFamily=Helvetica;fontSize=12;fontColor=default;endArrow=block;endFill=0;" edge="1" parent="1" source="qmFnf9-849JERfV-ilKU-24" target="qmFnf9-849JERfV-ilKU-20">
          <mxGeometry relative="1" as="geometry" />
        </mxCell>
        <mxCell id="qmFnf9-849JERfV-ilKU-24" value="&lt;span style=&quot;font-size: 11px;&quot;&gt;Deliver Completed Recipe&lt;/span&gt;" style="rounded=0;whiteSpace=wrap;html=1;fontSize=12;glass=0;strokeWidth=2;shadow=0;fillColor=#1ba1e2;fontColor=#ffffff;strokeColor=#006EAF;" vertex="1" parent="1">
          <mxGeometry x="340" y="590" width="120" height="40" as="geometry" />
        </mxCell>
        <mxCell id="qmFnf9-849JERfV-ilKU-25" value="&lt;h1&gt;Recipe flow&lt;/h1&gt;" style="text;html=1;strokeColor=none;fillColor=none;spacing=5;spacingTop=-20;whiteSpace=wrap;overflow=hidden;rounded=0;fontFamily=Helvetica;fontSize=12;fontColor=default;" vertex="1" parent="1">
          <mxGeometry x="320" y="50" width="190" height="120" as="geometry" />
        </mxCell>
        <mxCell id="qmFnf9-849JERfV-ilKU-26" style="edgeStyle=orthogonalEdgeStyle;rounded=0;orthogonalLoop=1;jettySize=auto;html=1;entryX=0;entryY=0.5;entryDx=0;entryDy=0;entryPerimeter=0;" edge="1" parent="1" source="qmFnf9-849JERfV-ilKU-27" target="qmFnf9-849JERfV-ilKU-19">
          <mxGeometry relative="1" as="geometry" />
        </mxCell>
        <mxCell id="qmFnf9-849JERfV-ilKU-27" value="Place plate on a clear counter" style="rounded=0;whiteSpace=wrap;html=1;absoluteArcSize=1;arcSize=14;strokeWidth=2;fontFamily=Helvetica;fontSize=12;fontColor=#ffffff;fillColor=#1ba1e2;strokeColor=#006EAF;" vertex="1" parent="1">
          <mxGeometry x="40" y="480" width="100" height="60" as="geometry" />
        </mxCell>
        <mxCell id="qmFnf9-849JERfV-ilKU-28" style="edgeStyle=orthogonalEdgeStyle;rounded=0;orthogonalLoop=1;jettySize=auto;html=1;exitX=0.5;exitY=1;exitDx=0;exitDy=0;entryX=0.5;entryY=0;entryDx=0;entryDy=0;" edge="1" parent="1" source="qmFnf9-849JERfV-ilKU-29" target="qmFnf9-849JERfV-ilKU-24">
          <mxGeometry relative="1" as="geometry" />
        </mxCell>
        <mxCell id="qmFnf9-849JERfV-ilKU-29" value="Pick up plate&lt;br&gt;with complete recipe" style="rounded=0;whiteSpace=wrap;html=1;absoluteArcSize=1;arcSize=14;strokeWidth=2;fontFamily=Helvetica;fontSize=12;fontColor=#ffffff;fillColor=#1ba1e2;strokeColor=#006EAF;" vertex="1" parent="1">
          <mxGeometry x="350" y="480" width="100" height="60" as="geometry" />
        </mxCell>
        <mxCell id="HGd2EYmUo62glk1Ve-bd-1" value="&lt;font style=&quot;font-size: 12px;&quot;&gt;Start&lt;/font&gt;" style="strokeWidth=2;html=1;shape=mxgraph.flowchart.start_1;whiteSpace=wrap;fontFamily=Helvetica;fontSize=11;fontColor=#ffffff;fillColor=#d80073;strokeColor=#A50040;" vertex="1" parent="1">
          <mxGeometry x="740" y="50" width="100" height="70" as="geometry" />
        </mxCell>
        <mxCell id="HGd2EYmUo62glk1Ve-bd-2" style="edgeStyle=orthogonalEdgeStyle;shape=connector;rounded=0;jumpStyle=none;jumpSize=6;orthogonalLoop=1;jettySize=auto;html=1;shadow=0;labelBackgroundColor=none;strokeColor=default;strokeWidth=1;fontFamily=Helvetica;fontSize=12;fontColor=default;endArrow=block;endFill=0;" edge="1" parent="1" source="HGd2EYmUo62glk1Ve-bd-4">
          <mxGeometry relative="1" as="geometry">
            <mxPoint x="790" y="320" as="targetPoint" />
          </mxGeometry>
        </mxCell>
        <mxCell id="HGd2EYmUo62glk1Ve-bd-3" value="Yes" style="edgeLabel;html=1;align=center;verticalAlign=middle;resizable=0;points=[];fontSize=12;fontFamily=Helvetica;fontColor=default;" connectable="0" vertex="1" parent="HGd2EYmUo62glk1Ve-bd-2">
          <mxGeometry x="0.1386" y="2" relative="1" as="geometry">
            <mxPoint x="16" y="-6" as="offset" />
          </mxGeometry>
        </mxCell>
        <mxCell id="HGd2EYmUo62glk1Ve-bd-4" value="Recipe needs other Ingredients" style="strokeWidth=2;html=1;shape=mxgraph.flowchart.decision;whiteSpace=wrap;fontFamily=Helvetica;fontSize=12;fontColor=#000000;fillColor=#f0a30a;strokeColor=#BD7000;" vertex="1" parent="1">
          <mxGeometry x="710" y="190" width="160" height="80" as="geometry" />
        </mxCell>
        <mxCell id="HGd2EYmUo62glk1Ve-bd-5" style="edgeStyle=orthogonalEdgeStyle;shape=connector;rounded=0;jumpStyle=none;jumpSize=6;orthogonalLoop=1;jettySize=auto;html=1;entryX=0.5;entryY=0;entryDx=0;entryDy=0;entryPerimeter=0;shadow=0;labelBackgroundColor=none;strokeColor=default;strokeWidth=1;fontFamily=Helvetica;fontSize=12;fontColor=default;endArrow=block;endFill=0;exitX=0.5;exitY=1;exitDx=0;exitDy=0;exitPerimeter=0;" edge="1" parent="1" source="HGd2EYmUo62glk1Ve-bd-1" target="HGd2EYmUo62glk1Ve-bd-4">
          <mxGeometry relative="1" as="geometry">
            <mxPoint x="790" y="130" as="sourcePoint" />
          </mxGeometry>
        </mxCell>
        <mxCell id="HGd2EYmUo62glk1Ve-bd-6" style="edgeStyle=orthogonalEdgeStyle;shape=connector;rounded=0;jumpStyle=none;jumpSize=6;orthogonalLoop=1;jettySize=auto;html=1;shadow=0;labelBackgroundColor=none;strokeColor=default;strokeWidth=1;fontFamily=Helvetica;fontSize=12;fontColor=default;endArrow=block;endFill=0;exitX=0;exitY=0.5;exitDx=0;exitDy=0;exitPerimeter=0;entryX=1;entryY=0.5;entryDx=0;entryDy=0;entryPerimeter=0;" edge="1" parent="1" source="HGd2EYmUo62glk1Ve-bd-4" target="HGd2EYmUo62glk1Ve-bd-8">
          <mxGeometry relative="1" as="geometry">
            <mxPoint x="800" y="280" as="sourcePoint" />
            <mxPoint x="650" y="230" as="targetPoint" />
          </mxGeometry>
        </mxCell>
        <mxCell id="HGd2EYmUo62glk1Ve-bd-7" value="No" style="edgeLabel;html=1;align=center;verticalAlign=middle;resizable=0;points=[];fontSize=12;fontFamily=Helvetica;fontColor=default;" connectable="0" vertex="1" parent="HGd2EYmUo62glk1Ve-bd-6">
          <mxGeometry x="0.1386" y="2" relative="1" as="geometry">
            <mxPoint x="4" y="-12" as="offset" />
          </mxGeometry>
        </mxCell>
        <mxCell id="HGd2EYmUo62glk1Ve-bd-8" value="End" style="strokeWidth=2;html=1;shape=mxgraph.flowchart.terminator;whiteSpace=wrap;rounded=0;fontFamily=Helvetica;fontSize=12;fontColor=#ffffff;fillColor=#d80073;strokeColor=#A50040;" vertex="1" parent="1">
          <mxGeometry x="550" y="200" width="100" height="60" as="geometry" />
        </mxCell>
        <mxCell id="HGd2EYmUo62glk1Ve-bd-9" style="edgeStyle=orthogonalEdgeStyle;shape=connector;rounded=0;jumpStyle=none;jumpSize=6;orthogonalLoop=1;jettySize=auto;html=1;entryX=0;entryY=0.5;entryDx=0;entryDy=0;shadow=0;labelBackgroundColor=none;strokeColor=default;strokeWidth=1;fontFamily=Helvetica;fontSize=12;fontColor=default;endArrow=block;endFill=0;" edge="1" parent="1" source="HGd2EYmUo62glk1Ve-bd-11" target="HGd2EYmUo62glk1Ve-bd-15">
          <mxGeometry relative="1" as="geometry" />
        </mxCell>
        <mxCell id="HGd2EYmUo62glk1Ve-bd-10" value="No" style="edgeLabel;html=1;align=center;verticalAlign=middle;resizable=0;points=[];fontSize=12;fontFamily=Helvetica;fontColor=default;" connectable="0" vertex="1" parent="HGd2EYmUo62glk1Ve-bd-9">
          <mxGeometry x="-0.3533" relative="1" as="geometry">
            <mxPoint x="4" y="-15" as="offset" />
          </mxGeometry>
        </mxCell>
        <mxCell id="HGd2EYmUo62glk1Ve-bd-11" value="ingredient needs processing" style="strokeWidth=2;html=1;shape=mxgraph.flowchart.decision;whiteSpace=wrap;rounded=0;fontFamily=Helvetica;fontSize=12;fontColor=#000000;fillColor=#f0a30a;strokeColor=#BD7000;" vertex="1" parent="1">
          <mxGeometry x="730" y="320" width="120" height="90" as="geometry" />
        </mxCell>
        <mxCell id="HGd2EYmUo62glk1Ve-bd-12" style="edgeStyle=orthogonalEdgeStyle;shape=connector;rounded=0;jumpStyle=none;jumpSize=6;orthogonalLoop=1;jettySize=auto;html=1;entryX=1;entryY=0.5;entryDx=0;entryDy=0;entryPerimeter=0;shadow=0;labelBackgroundColor=none;strokeColor=default;strokeWidth=1;fontFamily=Helvetica;fontSize=12;fontColor=default;endArrow=block;endFill=0;" edge="1" parent="1" source="HGd2EYmUo62glk1Ve-bd-13" target="HGd2EYmUo62glk1Ve-bd-4">
          <mxGeometry relative="1" as="geometry" />
        </mxCell>
        <mxCell id="HGd2EYmUo62glk1Ve-bd-13" value="Add final Ingredient &lt;br&gt;to the plate" style="rounded=0;whiteSpace=wrap;html=1;absoluteArcSize=1;arcSize=14;strokeWidth=2;fontFamily=Helvetica;fontSize=12;fontColor=#ffffff;fillColor=#1ba1e2;strokeColor=#006EAF;" vertex="1" parent="1">
          <mxGeometry x="910" y="200" width="100" height="60" as="geometry" />
        </mxCell>
        <mxCell id="HGd2EYmUo62glk1Ve-bd-14" style="edgeStyle=orthogonalEdgeStyle;shape=connector;rounded=0;jumpStyle=none;jumpSize=6;orthogonalLoop=1;jettySize=auto;html=1;entryX=0.443;entryY=1.03;entryDx=0;entryDy=0;entryPerimeter=0;shadow=0;labelBackgroundColor=none;strokeColor=default;strokeWidth=1;fontFamily=Helvetica;fontSize=12;fontColor=default;endArrow=block;endFill=0;" edge="1" parent="1" source="HGd2EYmUo62glk1Ve-bd-15" target="HGd2EYmUo62glk1Ve-bd-13">
          <mxGeometry relative="1" as="geometry" />
        </mxCell>
        <mxCell id="HGd2EYmUo62glk1Ve-bd-15" value="Pick up final ingredient from container" style="rounded=0;whiteSpace=wrap;html=1;absoluteArcSize=1;arcSize=14;strokeWidth=2;fontFamily=Helvetica;fontSize=12;fontColor=#ffffff;fillColor=#1ba1e2;strokeColor=#006EAF;" vertex="1" parent="1">
          <mxGeometry x="900" y="335" width="110" height="60" as="geometry" />
        </mxCell>
        <mxCell id="HGd2EYmUo62glk1Ve-bd-16" style="edgeStyle=orthogonalEdgeStyle;shape=connector;rounded=0;jumpStyle=none;jumpSize=6;orthogonalLoop=1;jettySize=auto;html=1;exitX=0.5;exitY=1;exitDx=0;exitDy=0;exitPerimeter=0;shadow=0;labelBackgroundColor=none;strokeColor=default;strokeWidth=1;fontFamily=Helvetica;fontSize=12;fontColor=default;endArrow=block;endFill=0;entryX=0.5;entryY=0;entryDx=0;entryDy=0;entryPerimeter=0;" edge="1" parent="1" source="HGd2EYmUo62glk1Ve-bd-11" target="HGd2EYmUo62glk1Ve-bd-20">
          <mxGeometry relative="1" as="geometry">
            <mxPoint x="730" y="365" as="sourcePoint" />
            <mxPoint x="660" y="365" as="targetPoint" />
          </mxGeometry>
        </mxCell>
        <mxCell id="HGd2EYmUo62glk1Ve-bd-17" value="Yes" style="edgeLabel;html=1;align=center;verticalAlign=middle;resizable=0;points=[];fontSize=12;fontFamily=Helvetica;fontColor=default;" connectable="0" vertex="1" parent="HGd2EYmUo62glk1Ve-bd-16">
          <mxGeometry x="-0.1943" y="1" relative="1" as="geometry">
            <mxPoint x="19" y="-4" as="offset" />
          </mxGeometry>
        </mxCell>
        <mxCell id="HGd2EYmUo62glk1Ve-bd-18" style="edgeStyle=orthogonalEdgeStyle;shape=connector;rounded=0;jumpStyle=none;jumpSize=6;orthogonalLoop=1;jettySize=auto;html=1;entryX=0.5;entryY=0;entryDx=0;entryDy=0;entryPerimeter=0;shadow=0;labelBackgroundColor=none;strokeColor=default;strokeWidth=1;fontFamily=Helvetica;fontSize=12;fontColor=default;endArrow=block;endFill=0;" edge="1" parent="1" source="HGd2EYmUo62glk1Ve-bd-20" target="HGd2EYmUo62glk1Ve-bd-31">
          <mxGeometry relative="1" as="geometry" />
        </mxCell>
        <mxCell id="HGd2EYmUo62glk1Ve-bd-19" value="No" style="edgeLabel;html=1;align=center;verticalAlign=middle;resizable=0;points=[];fontSize=12;fontFamily=Helvetica;fontColor=default;" connectable="0" vertex="1" parent="HGd2EYmUo62glk1Ve-bd-18">
          <mxGeometry x="0.2536" y="-1" relative="1" as="geometry">
            <mxPoint x="21" y="-14" as="offset" />
          </mxGeometry>
        </mxCell>
        <mxCell id="HGd2EYmUo62glk1Ve-bd-20" value="ingredient needs cooking" style="strokeWidth=2;html=1;shape=mxgraph.flowchart.decision;whiteSpace=wrap;rounded=0;fontFamily=Helvetica;fontSize=12;fontColor=#000000;fillColor=#f0a30a;strokeColor=#BD7000;" vertex="1" parent="1">
          <mxGeometry x="730" y="470" width="120" height="90" as="geometry" />
        </mxCell>
        <mxCell id="HGd2EYmUo62glk1Ve-bd-21" style="edgeStyle=orthogonalEdgeStyle;shape=connector;rounded=0;jumpStyle=none;jumpSize=6;orthogonalLoop=1;jettySize=auto;html=1;exitX=1;exitY=0.5;exitDx=0;exitDy=0;exitPerimeter=0;shadow=0;labelBackgroundColor=none;strokeColor=default;strokeWidth=1;fontFamily=Helvetica;fontSize=12;fontColor=default;endArrow=block;endFill=0;entryX=0;entryY=0.5;entryDx=0;entryDy=0;" edge="1" parent="1" source="HGd2EYmUo62glk1Ve-bd-20" target="HGd2EYmUo62glk1Ve-bd-24">
          <mxGeometry relative="1" as="geometry">
            <mxPoint x="800" y="420" as="sourcePoint" />
            <mxPoint x="900" y="515" as="targetPoint" />
          </mxGeometry>
        </mxCell>
        <mxCell id="HGd2EYmUo62glk1Ve-bd-22" value="Yes" style="edgeLabel;html=1;align=center;verticalAlign=middle;resizable=0;points=[];fontSize=12;fontFamily=Helvetica;fontColor=default;" connectable="0" vertex="1" parent="HGd2EYmUo62glk1Ve-bd-21">
          <mxGeometry x="-0.1943" y="1" relative="1" as="geometry">
            <mxPoint y="-14" as="offset" />
          </mxGeometry>
        </mxCell>
        <mxCell id="HGd2EYmUo62glk1Ve-bd-23" style="edgeStyle=orthogonalEdgeStyle;shape=connector;rounded=0;jumpStyle=none;jumpSize=6;orthogonalLoop=1;jettySize=auto;html=1;shadow=0;labelBackgroundColor=none;strokeColor=default;strokeWidth=1;fontFamily=Helvetica;fontSize=12;fontColor=default;endArrow=block;endFill=0;" edge="1" parent="1" source="HGd2EYmUo62glk1Ve-bd-24" target="HGd2EYmUo62glk1Ve-bd-26">
          <mxGeometry relative="1" as="geometry" />
        </mxCell>
        <mxCell id="HGd2EYmUo62glk1Ve-bd-24" value="Pick up base ingredient from container" style="rounded=0;whiteSpace=wrap;html=1;absoluteArcSize=1;arcSize=14;strokeWidth=2;fontFamily=Helvetica;fontSize=12;fontColor=#ffffff;fillColor=#1ba1e2;strokeColor=#006EAF;" vertex="1" parent="1">
          <mxGeometry x="900" y="485" width="110" height="60" as="geometry" />
        </mxCell>
        <mxCell id="HGd2EYmUo62glk1Ve-bd-25" style="edgeStyle=orthogonalEdgeStyle;shape=connector;rounded=0;jumpStyle=none;jumpSize=6;orthogonalLoop=1;jettySize=auto;html=1;shadow=0;labelBackgroundColor=none;strokeColor=default;strokeWidth=1;fontFamily=Helvetica;fontSize=12;fontColor=default;endArrow=block;endFill=0;entryX=0;entryY=0.5;entryDx=0;entryDy=0;entryPerimeter=0;" edge="1" parent="1" source="HGd2EYmUo62glk1Ve-bd-26" target="HGd2EYmUo62glk1Ve-bd-28">
          <mxGeometry relative="1" as="geometry">
            <mxPoint x="955" y="670" as="targetPoint" />
          </mxGeometry>
        </mxCell>
        <mxCell id="HGd2EYmUo62glk1Ve-bd-26" value="Place base ingredient on stove" style="rounded=0;whiteSpace=wrap;html=1;absoluteArcSize=1;arcSize=14;strokeWidth=2;fontFamily=Helvetica;fontSize=12;fontColor=#ffffff;fillColor=#1ba1e2;strokeColor=#006EAF;" vertex="1" parent="1">
          <mxGeometry x="1050" y="485" width="110" height="60" as="geometry" />
        </mxCell>
        <mxCell id="HGd2EYmUo62glk1Ve-bd-27" style="edgeStyle=orthogonalEdgeStyle;shape=connector;rounded=0;jumpStyle=none;jumpSize=6;orthogonalLoop=1;jettySize=auto;html=1;entryX=0;entryY=0.5;entryDx=0;entryDy=0;shadow=0;labelBackgroundColor=none;strokeColor=default;strokeWidth=1;fontFamily=Helvetica;fontSize=12;fontColor=default;endArrow=block;endFill=0;" edge="1" parent="1" source="HGd2EYmUo62glk1Ve-bd-28" target="HGd2EYmUo62glk1Ve-bd-30">
          <mxGeometry relative="1" as="geometry" />
        </mxCell>
        <mxCell id="HGd2EYmUo62glk1Ve-bd-28" value="Wait for base ingredient to cook" style="strokeWidth=2;html=1;shape=mxgraph.flowchart.delay;whiteSpace=wrap;rounded=0;fontFamily=Helvetica;fontSize=12;fontColor=#ffffff;fillColor=#60a917;strokeColor=#2D7600;" vertex="1" parent="1">
          <mxGeometry x="1190" y="485" width="110" height="60" as="geometry" />
        </mxCell>
        <mxCell id="HGd2EYmUo62glk1Ve-bd-29" style="edgeStyle=orthogonalEdgeStyle;shape=connector;rounded=0;jumpStyle=none;jumpSize=6;orthogonalLoop=1;jettySize=auto;html=1;entryX=0;entryY=0.5;entryDx=0;entryDy=0;entryPerimeter=0;shadow=0;labelBackgroundColor=none;strokeColor=default;strokeWidth=1;fontFamily=Helvetica;fontSize=12;fontColor=default;endArrow=block;endFill=0;" edge="1" parent="1" source="HGd2EYmUo62glk1Ve-bd-30" target="HGd2EYmUo62glk1Ve-bd-45">
          <mxGeometry relative="1" as="geometry" />
        </mxCell>
        <mxCell id="HGd2EYmUo62glk1Ve-bd-30" value="Pick up final ingredient from stove" style="rounded=0;whiteSpace=wrap;html=1;absoluteArcSize=1;arcSize=14;strokeWidth=2;fontFamily=Helvetica;fontSize=12;fontColor=#ffffff;fillColor=#1ba1e2;strokeColor=#006EAF;" vertex="1" parent="1">
          <mxGeometry x="1330" y="485" width="110" height="60" as="geometry" />
        </mxCell>
        <mxCell id="HGd2EYmUo62glk1Ve-bd-31" value="ingredient needs cutting" style="strokeWidth=2;html=1;shape=mxgraph.flowchart.decision;whiteSpace=wrap;rounded=0;fontFamily=Helvetica;fontSize=12;fontColor=#000000;fillColor=#f0a30a;strokeColor=#BD7000;" vertex="1" parent="1">
          <mxGeometry x="730" y="630" width="120" height="90" as="geometry" />
        </mxCell>
        <mxCell id="HGd2EYmUo62glk1Ve-bd-32" style="edgeStyle=orthogonalEdgeStyle;shape=connector;rounded=0;jumpStyle=none;jumpSize=6;orthogonalLoop=1;jettySize=auto;html=1;exitX=1;exitY=0.5;exitDx=0;exitDy=0;exitPerimeter=0;shadow=0;labelBackgroundColor=none;strokeColor=default;strokeWidth=1;fontFamily=Helvetica;fontSize=12;fontColor=default;endArrow=block;endFill=0;entryX=0;entryY=0.5;entryDx=0;entryDy=0;" edge="1" parent="1" source="HGd2EYmUo62glk1Ve-bd-31" target="HGd2EYmUo62glk1Ve-bd-35">
          <mxGeometry relative="1" as="geometry">
            <mxPoint x="800" y="580" as="sourcePoint" />
            <mxPoint x="900" y="675" as="targetPoint" />
          </mxGeometry>
        </mxCell>
        <mxCell id="HGd2EYmUo62glk1Ve-bd-33" value="Yes" style="edgeLabel;html=1;align=center;verticalAlign=middle;resizable=0;points=[];fontSize=12;fontFamily=Helvetica;fontColor=default;" connectable="0" vertex="1" parent="HGd2EYmUo62glk1Ve-bd-32">
          <mxGeometry x="-0.1943" y="1" relative="1" as="geometry">
            <mxPoint y="-14" as="offset" />
          </mxGeometry>
        </mxCell>
        <mxCell id="HGd2EYmUo62glk1Ve-bd-34" style="edgeStyle=orthogonalEdgeStyle;shape=connector;rounded=0;jumpStyle=none;jumpSize=6;orthogonalLoop=1;jettySize=auto;html=1;shadow=0;labelBackgroundColor=none;strokeColor=default;strokeWidth=1;fontFamily=Helvetica;fontSize=12;fontColor=default;endArrow=block;endFill=0;" edge="1" parent="1" source="HGd2EYmUo62glk1Ve-bd-35" target="HGd2EYmUo62glk1Ve-bd-37">
          <mxGeometry relative="1" as="geometry" />
        </mxCell>
        <mxCell id="HGd2EYmUo62glk1Ve-bd-35" value="Pick up base ingredient from container" style="rounded=0;whiteSpace=wrap;html=1;absoluteArcSize=1;arcSize=14;strokeWidth=2;fontFamily=Helvetica;fontSize=12;fontColor=#ffffff;fillColor=#1ba1e2;strokeColor=#006EAF;" vertex="1" parent="1">
          <mxGeometry x="900" y="645" width="110" height="60" as="geometry" />
        </mxCell>
        <mxCell id="HGd2EYmUo62glk1Ve-bd-36" style="edgeStyle=orthogonalEdgeStyle;shape=connector;rounded=0;jumpStyle=none;jumpSize=6;orthogonalLoop=1;jettySize=auto;html=1;shadow=0;labelBackgroundColor=none;strokeColor=default;strokeWidth=1;fontFamily=Helvetica;fontSize=12;fontColor=default;endArrow=block;endFill=0;entryX=0;entryY=0.5;entryDx=0;entryDy=0;entryPerimeter=0;" edge="1" parent="1" source="HGd2EYmUo62glk1Ve-bd-37">
          <mxGeometry relative="1" as="geometry">
            <mxPoint x="1190" y="675" as="targetPoint" />
          </mxGeometry>
        </mxCell>
        <mxCell id="HGd2EYmUo62glk1Ve-bd-37" value="Place base ingredient on cutting counter" style="rounded=0;whiteSpace=wrap;html=1;absoluteArcSize=1;arcSize=14;strokeWidth=2;fontFamily=Helvetica;fontSize=12;fontColor=#ffffff;fillColor=#1ba1e2;strokeColor=#006EAF;" vertex="1" parent="1">
          <mxGeometry x="1050" y="645" width="110" height="60" as="geometry" />
        </mxCell>
        <mxCell id="HGd2EYmUo62glk1Ve-bd-38" style="edgeStyle=orthogonalEdgeStyle;shape=connector;rounded=0;jumpStyle=none;jumpSize=6;orthogonalLoop=1;jettySize=auto;html=1;entryX=0;entryY=0.5;entryDx=0;entryDy=0;shadow=0;labelBackgroundColor=none;strokeColor=default;strokeWidth=1;fontFamily=Helvetica;fontSize=12;fontColor=default;endArrow=block;endFill=0;" edge="1" parent="1" target="HGd2EYmUo62glk1Ve-bd-40">
          <mxGeometry relative="1" as="geometry">
            <mxPoint x="1300" y="675" as="sourcePoint" />
          </mxGeometry>
        </mxCell>
        <mxCell id="HGd2EYmUo62glk1Ve-bd-39" style="edgeStyle=orthogonalEdgeStyle;shape=connector;rounded=0;jumpStyle=none;jumpSize=6;orthogonalLoop=1;jettySize=auto;html=1;exitX=1;exitY=0.5;exitDx=0;exitDy=0;entryX=0.5;entryY=1;entryDx=0;entryDy=0;entryPerimeter=0;shadow=0;labelBackgroundColor=none;strokeColor=default;strokeWidth=1;fontFamily=Helvetica;fontSize=12;fontColor=default;endArrow=block;endFill=0;" edge="1" parent="1" source="HGd2EYmUo62glk1Ve-bd-40" target="HGd2EYmUo62glk1Ve-bd-45">
          <mxGeometry relative="1" as="geometry" />
        </mxCell>
        <mxCell id="HGd2EYmUo62glk1Ve-bd-40" value="Pick up final ingredient from cutting counter" style="rounded=0;whiteSpace=wrap;html=1;absoluteArcSize=1;arcSize=14;strokeWidth=2;fontFamily=Helvetica;fontSize=12;fontColor=#ffffff;fillColor=#1ba1e2;strokeColor=#006EAF;" vertex="1" parent="1">
          <mxGeometry x="1330" y="645" width="110" height="60" as="geometry" />
        </mxCell>
        <mxCell id="HGd2EYmUo62glk1Ve-bd-41" style="edgeStyle=orthogonalEdgeStyle;shape=connector;rounded=0;jumpStyle=none;jumpSize=6;orthogonalLoop=1;jettySize=auto;html=1;shadow=0;labelBackgroundColor=none;strokeColor=default;strokeWidth=1;fontFamily=Helvetica;fontSize=12;fontColor=default;endArrow=block;endFill=0;exitX=0;exitY=0.5;exitDx=0;exitDy=0;exitPerimeter=0;entryX=1;entryY=0.5;entryDx=0;entryDy=0;entryPerimeter=0;" edge="1" parent="1" source="HGd2EYmUo62glk1Ve-bd-31" target="HGd2EYmUo62glk1Ve-bd-43">
          <mxGeometry relative="1" as="geometry">
            <mxPoint x="800" y="570" as="sourcePoint" />
            <mxPoint x="790" y="780" as="targetPoint" />
          </mxGeometry>
        </mxCell>
        <mxCell id="HGd2EYmUo62glk1Ve-bd-42" value="No" style="edgeLabel;html=1;align=center;verticalAlign=middle;resizable=0;points=[];fontSize=12;fontFamily=Helvetica;fontColor=default;" connectable="0" vertex="1" parent="HGd2EYmUo62glk1Ve-bd-41">
          <mxGeometry x="0.2536" y="-1" relative="1" as="geometry">
            <mxPoint x="21" y="-14" as="offset" />
          </mxGeometry>
        </mxCell>
        <mxCell id="HGd2EYmUo62glk1Ve-bd-43" value="Abort, Error" style="strokeWidth=2;html=1;shape=mxgraph.flowchart.terminator;whiteSpace=wrap;rounded=0;fontFamily=Helvetica;fontSize=12;fontColor=#ffffff;fillColor=#d80073;strokeColor=#A50040;" vertex="1" parent="1">
          <mxGeometry x="550" y="645" width="100" height="60" as="geometry" />
        </mxCell>
        <mxCell id="HGd2EYmUo62glk1Ve-bd-44" style="edgeStyle=orthogonalEdgeStyle;shape=connector;rounded=0;jumpStyle=none;jumpSize=6;orthogonalLoop=1;jettySize=auto;html=1;entryX=1;entryY=0.5;entryDx=0;entryDy=0;shadow=0;labelBackgroundColor=none;strokeColor=default;strokeWidth=1;fontFamily=Helvetica;fontSize=12;fontColor=default;endArrow=block;endFill=0;" edge="1" parent="1" source="HGd2EYmUo62glk1Ve-bd-45" target="HGd2EYmUo62glk1Ve-bd-13">
          <mxGeometry relative="1" as="geometry">
            <Array as="points">
              <mxPoint x="1510" y="230" />
            </Array>
          </mxGeometry>
        </mxCell>
        <mxCell id="HGd2EYmUo62glk1Ve-bd-45" value="" style="verticalLabelPosition=bottom;verticalAlign=top;html=1;shape=mxgraph.flowchart.summing_function;rounded=0;fontFamily=Helvetica;fontSize=12;fontColor=default;" vertex="1" parent="1">
          <mxGeometry x="1480" y="485" width="60" height="60" as="geometry" />
        </mxCell>
        <mxCell id="HGd2EYmUo62glk1Ve-bd-46" value="Cut base ingredient" style="rounded=0;whiteSpace=wrap;html=1;absoluteArcSize=1;arcSize=14;strokeWidth=2;fontFamily=Helvetica;fontSize=12;fontColor=#ffffff;fillColor=#1ba1e2;strokeColor=#006EAF;" vertex="1" parent="1">
          <mxGeometry x="1190" y="645" width="110" height="60" as="geometry" />
        </mxCell>
        <mxCell id="HGd2EYmUo62glk1Ve-bd-47" value="&lt;h1&gt;Recipe ingredients flow&lt;/h1&gt;" style="text;html=1;strokeColor=none;fillColor=none;spacing=5;spacingTop=-20;whiteSpace=wrap;overflow=hidden;rounded=0;fontFamily=Helvetica;fontSize=12;fontColor=default;" vertex="1" parent="1">
          <mxGeometry x="910" y="40" width="310" height="50" as="geometry" />
        </mxCell>
        <mxCell id="HGd2EYmUo62glk1Ve-bd-48" value="" style="endArrow=none;dashed=1;html=1;rounded=0;" edge="1" parent="1">
          <mxGeometry width="50" height="50" relative="1" as="geometry">
            <mxPoint x="520" y="830" as="sourcePoint" />
            <mxPoint x="520" y="40" as="targetPoint" />
          </mxGeometry>
        </mxCell>
      </root>
    </mxGraphModel>
  </diagram>
</mxfile>
